<svg width="52" height="52" viewBox="0 0 52 52" fill="none" xmlns="http://www.w3.org/2000/svg">
<circle cx="26" cy="26" r="26" fill="#EF2E58"/>
<path d="M26 13.4993C32.9125 13.4993 38.5 19.1005 38.5 25.9993C38.5 32.9005 32.9125 38.4993 26 38.4993C19.1 38.4993 13.5 32.9005 13.5 25.9993C13.5 19.1005 19.1 13.4993 26 13.4993ZM26 29.663C25.4 29.663 24.9125 30.1505 24.9125 30.7505C24.9125 31.3505 25.4 31.8505 26.0125 31.8505C26.6125 31.8505 27.1 31.3505 27.1 30.7505C27.1 30.1505 26.6125 29.663 26 29.663ZM26 20.1618C25.4 20.1618 24.9 20.663 24.9 21.2618V26.7868C24.9 27.388 25.4 27.8743 26 27.8743C26.6 27.8743 27.0875 27.388 27.0875 26.7868V21.2618C27.0875 20.663 26.6 20.1618 26 20.1618Z" fill="white"/>
</svg>
