<svg width="52" height="53" viewBox="0 0 52 53" fill="none" xmlns="http://www.w3.org/2000/svg">
<circle cx="26" cy="26.4402" r="26" fill="#EF2E58"/>
<path fill-rule="evenodd" clip-rule="evenodd" d="M26.0105 12.1322C27.5033 12.1322 28.8396 12.9064 29.5801 14.2031L40.0972 32.5912C40.8333 33.8776 40.829 35.4129 40.084 36.6964C39.3391 37.9814 38.0087 38.7483 36.5261 38.7483H15.4759C13.9918 38.7483 12.6615 37.9814 11.9165 36.6964C11.1716 35.4129 11.1672 33.8776 11.9033 32.5912L22.4409 14.2002C23.1815 12.905 24.5148 12.1322 26.009 12.1322H26.0105ZM26.009 14.3275C25.3124 14.3275 24.6918 14.6876 24.3435 15.292L13.8089 33.6815C13.4664 34.2816 13.4693 34.9973 13.8162 35.5958C14.1631 36.1944 14.7836 36.553 15.4759 36.553H36.5261C37.2169 36.553 37.8375 36.1944 38.1843 35.5958C38.5326 34.9973 38.5356 34.2816 38.1902 33.6815L27.6746 15.292C27.3277 14.6876 26.7072 14.3275 26.009 14.3275ZM25.9991 30.4251C26.8084 30.4251 27.4626 31.0793 27.4626 31.8887C27.4626 32.698 26.8084 33.3522 25.9991 33.3522C25.1898 33.3522 24.5282 32.698 24.5282 31.8887C24.5282 31.0793 25.1766 30.4251 25.9845 30.4251H25.9991ZM25.9962 21.7389C26.6021 21.7389 27.0938 22.2307 27.0938 22.8366V27.3736C27.0938 27.9795 26.6021 28.4713 25.9962 28.4713C25.3903 28.4713 24.8985 27.9795 24.8985 27.3736V22.8366C24.8985 22.2307 25.3903 21.7389 25.9962 21.7389Z" fill="white"/>
</svg>
